<svg width="48" height="48" viewBox="0 0 48 48" fill="none" xmlns="http://www.w3.org/2000/svg">
<path d="M38 31.18L35.18 34L28 26.82L20.82 34L18 31.18L25.18 24L18 16.82L20.82 14L28 21.18L35.18 14L38 16.82L30.82 24L38 31.18ZM44 6C45.0609 6 46.0783 6.42143 46.8284 7.17157C47.5786 7.92172 48 8.93913 48 10V38C48 39.0609 47.5786 40.0783 46.8284 40.8284C46.0783 41.5786 45.0609 42 44 42H14C12.62 42 11.54 41.28 10.82 40.22L0 24L10.82 7.76C11.54 6.7 12.62 6 14 6H44ZM44 10H14L4.56 24L14 38H44V10Z" fill="#202020"/>
</svg>
